<mxfile host="app.diagrams.net" modified="2022-05-29T07:13:45.542Z" agent="5.0 (Windows NT 10.0; Win64; x64) AppleWebKit/537.36 (KHTML, like Gecko) Chrome/101.0.4951.64 Safari/537.36 Edg/101.0.1210.53" etag="OJICYOugPWyKF6paaFWU" version="18.1.3" type="github">
  <diagram id="kgpKYQtTHZ0yAKxKKP6v" name="Page-1">
    <mxGraphModel dx="981" dy="532" grid="1" gridSize="10" guides="1" tooltips="1" connect="1" arrows="1" fold="1" page="1" pageScale="1" pageWidth="850" pageHeight="1100" math="0" shadow="0">
      <root>
        <mxCell id="0" />
        <mxCell id="1" parent="0" />
        <mxCell id="3nuBFxr9cyL0pnOWT2aG-1" value="浏览器端" style="shape=umlLifeline;perimeter=lifelinePerimeter;container=1;collapsible=0;recursiveResize=0;rounded=0;shadow=0;strokeWidth=1;" parent="1" vertex="1">
          <mxGeometry x="120" y="80" width="100" height="350" as="geometry" />
        </mxCell>
        <mxCell id="3nuBFxr9cyL0pnOWT2aG-2" value="" style="points=[];perimeter=orthogonalPerimeter;rounded=0;shadow=0;strokeWidth=1;" parent="3nuBFxr9cyL0pnOWT2aG-1" vertex="1">
          <mxGeometry x="45" y="70" width="10" height="250" as="geometry" />
        </mxCell>
        <mxCell id="3nuBFxr9cyL0pnOWT2aG-3" value="登录开始" style="verticalAlign=bottom;startArrow=oval;endArrow=block;startSize=8;shadow=0;strokeWidth=1;" parent="3nuBFxr9cyL0pnOWT2aG-1" target="3nuBFxr9cyL0pnOWT2aG-2" edge="1">
          <mxGeometry relative="1" as="geometry">
            <mxPoint x="-15" y="70" as="sourcePoint" />
          </mxGeometry>
        </mxCell>
        <mxCell id="H0bIkN5_pEuc1fQZUo3y-43" value="" style="points=[];perimeter=orthogonalPerimeter;rounded=0;shadow=0;strokeWidth=1;" vertex="1" parent="3nuBFxr9cyL0pnOWT2aG-1">
          <mxGeometry x="53" y="253" width="10" height="36" as="geometry" />
        </mxCell>
        <mxCell id="H0bIkN5_pEuc1fQZUo3y-48" style="edgeStyle=orthogonalEdgeStyle;rounded=0;orthogonalLoop=1;jettySize=auto;html=1;entryX=1.014;entryY=0.838;entryDx=0;entryDy=0;entryPerimeter=0;dashed=1;" edge="1" parent="3nuBFxr9cyL0pnOWT2aG-1" source="H0bIkN5_pEuc1fQZUo3y-43" target="H0bIkN5_pEuc1fQZUo3y-43">
          <mxGeometry relative="1" as="geometry">
            <Array as="points">
              <mxPoint x="140" y="270" />
              <mxPoint x="140" y="283" />
            </Array>
          </mxGeometry>
        </mxCell>
        <mxCell id="H0bIkN5_pEuc1fQZUo3y-49" value="把用户信息和token放入&lt;br&gt;LocalStroage" style="edgeLabel;html=1;align=center;verticalAlign=middle;resizable=0;points=[];" vertex="1" connectable="0" parent="H0bIkN5_pEuc1fQZUo3y-48">
          <mxGeometry x="0.4387" y="-1" relative="1" as="geometry">
            <mxPoint x="10" y="28" as="offset" />
          </mxGeometry>
        </mxCell>
        <mxCell id="3nuBFxr9cyL0pnOWT2aG-5" value="UserController" style="shape=umlLifeline;perimeter=lifelinePerimeter;container=1;collapsible=0;recursiveResize=0;rounded=0;shadow=0;strokeWidth=1;" parent="1" vertex="1">
          <mxGeometry x="260" y="80" width="100" height="320" as="geometry" />
        </mxCell>
        <mxCell id="3nuBFxr9cyL0pnOWT2aG-6" value="" style="points=[];perimeter=orthogonalPerimeter;rounded=0;shadow=0;strokeWidth=1;" parent="3nuBFxr9cyL0pnOWT2aG-5" vertex="1">
          <mxGeometry x="45" y="80" width="10" height="240" as="geometry" />
        </mxCell>
        <mxCell id="H0bIkN5_pEuc1fQZUo3y-8" value="返回查询到的User" style="verticalAlign=bottom;endArrow=block;shadow=0;strokeWidth=1;exitX=-0.176;exitY=0.979;exitDx=0;exitDy=0;exitPerimeter=0;dashed=1;" edge="1" parent="3nuBFxr9cyL0pnOWT2aG-5" source="H0bIkN5_pEuc1fQZUo3y-9">
          <mxGeometry relative="1" as="geometry">
            <mxPoint x="180" y="129.9999999999999" as="sourcePoint" />
            <mxPoint x="50" y="140" as="targetPoint" />
            <Array as="points">
              <mxPoint x="60" y="140" />
            </Array>
          </mxGeometry>
        </mxCell>
        <mxCell id="H0bIkN5_pEuc1fQZUo3y-19" value="" style="points=[];perimeter=orthogonalPerimeter;rounded=0;shadow=0;strokeWidth=1;" vertex="1" parent="3nuBFxr9cyL0pnOWT2aG-5">
          <mxGeometry x="52" y="214" width="10" height="36" as="geometry" />
        </mxCell>
        <mxCell id="3nuBFxr9cyL0pnOWT2aG-8" value="登录请求&#xa;表单内容：用户名和密码" style="verticalAlign=bottom;endArrow=block;entryX=0;entryY=0;shadow=0;strokeWidth=1;" parent="1" source="3nuBFxr9cyL0pnOWT2aG-2" target="3nuBFxr9cyL0pnOWT2aG-6" edge="1">
          <mxGeometry relative="1" as="geometry">
            <mxPoint x="275" y="160" as="sourcePoint" />
          </mxGeometry>
        </mxCell>
        <mxCell id="H0bIkN5_pEuc1fQZUo3y-1" value="UserService" style="shape=umlLifeline;perimeter=lifelinePerimeter;container=1;collapsible=0;recursiveResize=0;rounded=0;shadow=0;strokeWidth=1;" vertex="1" parent="1">
          <mxGeometry x="435" y="80" width="100" height="320" as="geometry" />
        </mxCell>
        <mxCell id="H0bIkN5_pEuc1fQZUo3y-2" value="" style="points=[];perimeter=orthogonalPerimeter;rounded=0;shadow=0;strokeWidth=1;" vertex="1" parent="H0bIkN5_pEuc1fQZUo3y-1">
          <mxGeometry x="45" y="80" width="15" height="240" as="geometry" />
        </mxCell>
        <mxCell id="H0bIkN5_pEuc1fQZUo3y-9" value="" style="points=[];perimeter=orthogonalPerimeter;rounded=0;shadow=0;strokeWidth=1;" vertex="1" parent="H0bIkN5_pEuc1fQZUo3y-1">
          <mxGeometry x="43" y="100" width="10" height="40" as="geometry" />
        </mxCell>
        <mxCell id="H0bIkN5_pEuc1fQZUo3y-27" value="" style="points=[];perimeter=orthogonalPerimeter;rounded=0;shadow=0;strokeWidth=1;" vertex="1" parent="H0bIkN5_pEuc1fQZUo3y-1">
          <mxGeometry x="37" y="210" width="10" height="30" as="geometry" />
        </mxCell>
        <mxCell id="H0bIkN5_pEuc1fQZUo3y-3" value="数据库" style="shape=umlLifeline;perimeter=lifelinePerimeter;container=1;collapsible=0;recursiveResize=0;rounded=0;shadow=0;strokeWidth=1;" vertex="1" parent="1">
          <mxGeometry x="610" y="80" width="100" height="320" as="geometry" />
        </mxCell>
        <mxCell id="H0bIkN5_pEuc1fQZUo3y-4" value="" style="points=[];perimeter=orthogonalPerimeter;rounded=0;shadow=0;strokeWidth=1;" vertex="1" parent="H0bIkN5_pEuc1fQZUo3y-3">
          <mxGeometry x="45" y="80" width="10" height="240" as="geometry" />
        </mxCell>
        <mxCell id="H0bIkN5_pEuc1fQZUo3y-34" value="" style="points=[];perimeter=orthogonalPerimeter;rounded=0;shadow=0;strokeWidth=1;" vertex="1" parent="H0bIkN5_pEuc1fQZUo3y-3">
          <mxGeometry x="37" y="110" width="10" height="20" as="geometry" />
        </mxCell>
        <mxCell id="H0bIkN5_pEuc1fQZUo3y-7" value="根据用户名查询" style="verticalAlign=bottom;endArrow=block;shadow=0;strokeWidth=1;entryX=0.307;entryY=0.06;entryDx=0;entryDy=0;entryPerimeter=0;" edge="1" parent="1" target="H0bIkN5_pEuc1fQZUo3y-9">
          <mxGeometry relative="1" as="geometry">
            <mxPoint x="315" y="180.00000000000023" as="sourcePoint" />
            <mxPoint x="430" y="180" as="targetPoint" />
          </mxGeometry>
        </mxCell>
        <mxCell id="3nuBFxr9cyL0pnOWT2aG-4" value="" style="points=[];perimeter=orthogonalPerimeter;rounded=0;shadow=0;strokeWidth=1;" parent="1" vertex="1">
          <mxGeometry x="315" y="270" width="10" height="10" as="geometry" />
        </mxCell>
        <mxCell id="H0bIkN5_pEuc1fQZUo3y-17" value="" style="endArrow=classic;html=1;rounded=0;exitX=1.331;exitY=0.395;exitDx=0;exitDy=0;exitPerimeter=0;" edge="1" parent="1" source="3nuBFxr9cyL0pnOWT2aG-6" target="3nuBFxr9cyL0pnOWT2aG-4">
          <mxGeometry width="50" height="50" relative="1" as="geometry">
            <mxPoint x="400" y="330" as="sourcePoint" />
            <mxPoint x="450" y="280" as="targetPoint" />
            <Array as="points">
              <mxPoint x="390" y="255" />
              <mxPoint x="390" y="270" />
            </Array>
          </mxGeometry>
        </mxCell>
        <mxCell id="H0bIkN5_pEuc1fQZUo3y-18" value="md5（password+salt）&lt;br&gt;&amp;nbsp;==&amp;nbsp; db_password&amp;nbsp;" style="edgeLabel;html=1;align=center;verticalAlign=middle;resizable=0;points=[];" vertex="1" connectable="0" parent="H0bIkN5_pEuc1fQZUo3y-17">
          <mxGeometry x="-0.3909" y="3" relative="1" as="geometry">
            <mxPoint x="25" y="-12" as="offset" />
          </mxGeometry>
        </mxCell>
        <mxCell id="H0bIkN5_pEuc1fQZUo3y-28" style="edgeStyle=orthogonalEdgeStyle;rounded=0;orthogonalLoop=1;jettySize=auto;html=1;" edge="1" parent="1" source="H0bIkN5_pEuc1fQZUo3y-19" target="H0bIkN5_pEuc1fQZUo3y-27">
          <mxGeometry relative="1" as="geometry">
            <Array as="points">
              <mxPoint x="420" y="300" />
              <mxPoint x="420" y="300" />
            </Array>
          </mxGeometry>
        </mxCell>
        <mxCell id="H0bIkN5_pEuc1fQZUo3y-29" value="生成JWT TOKEN" style="edgeLabel;html=1;align=center;verticalAlign=middle;resizable=0;points=[];" vertex="1" connectable="0" parent="H0bIkN5_pEuc1fQZUo3y-28">
          <mxGeometry x="-0.2032" relative="1" as="geometry">
            <mxPoint as="offset" />
          </mxGeometry>
        </mxCell>
        <mxCell id="H0bIkN5_pEuc1fQZUo3y-32" value="" style="endArrow=classic;html=1;rounded=0;exitX=-0.197;exitY=0.945;exitDx=0;exitDy=0;exitPerimeter=0;dashed=1;" edge="1" parent="1" source="H0bIkN5_pEuc1fQZUo3y-27" target="H0bIkN5_pEuc1fQZUo3y-19">
          <mxGeometry width="50" height="50" relative="1" as="geometry">
            <mxPoint x="400" y="330" as="sourcePoint" />
            <mxPoint x="450" y="280" as="targetPoint" />
          </mxGeometry>
        </mxCell>
        <mxCell id="H0bIkN5_pEuc1fQZUo3y-33" value="放入http header 返回" style="edgeLabel;html=1;align=center;verticalAlign=middle;resizable=0;points=[];" vertex="1" connectable="0" parent="H0bIkN5_pEuc1fQZUo3y-32">
          <mxGeometry x="0.1367" y="1" relative="1" as="geometry">
            <mxPoint as="offset" />
          </mxGeometry>
        </mxCell>
        <mxCell id="H0bIkN5_pEuc1fQZUo3y-35" style="edgeStyle=orthogonalEdgeStyle;rounded=0;orthogonalLoop=1;jettySize=auto;html=1;entryX=0.097;entryY=0.122;entryDx=0;entryDy=0;entryPerimeter=0;" edge="1" parent="1">
          <mxGeometry relative="1" as="geometry">
            <mxPoint x="487.9999999999998" y="193.9655172413793" as="sourcePoint" />
            <mxPoint x="647.97" y="190.70799999999986" as="targetPoint" />
            <Array as="points">
              <mxPoint x="590" y="194" />
              <mxPoint x="590" y="191" />
            </Array>
          </mxGeometry>
        </mxCell>
        <mxCell id="H0bIkN5_pEuc1fQZUo3y-37" value="查询" style="edgeLabel;html=1;align=center;verticalAlign=middle;resizable=0;points=[];" vertex="1" connectable="0" parent="H0bIkN5_pEuc1fQZUo3y-35">
          <mxGeometry x="0.1653" y="1" relative="1" as="geometry">
            <mxPoint as="offset" />
          </mxGeometry>
        </mxCell>
        <mxCell id="H0bIkN5_pEuc1fQZUo3y-36" style="edgeStyle=orthogonalEdgeStyle;rounded=0;orthogonalLoop=1;jettySize=auto;html=1;entryX=1.066;entryY=0.657;entryDx=0;entryDy=0;entryPerimeter=0;dashed=1;" edge="1" parent="1" source="H0bIkN5_pEuc1fQZUo3y-34" target="H0bIkN5_pEuc1fQZUo3y-9">
          <mxGeometry relative="1" as="geometry">
            <Array as="points">
              <mxPoint x="610" y="206" />
              <mxPoint x="610" y="206" />
            </Array>
          </mxGeometry>
        </mxCell>
        <mxCell id="H0bIkN5_pEuc1fQZUo3y-38" value="返回" style="edgeLabel;html=1;align=center;verticalAlign=middle;resizable=0;points=[];" vertex="1" connectable="0" parent="H0bIkN5_pEuc1fQZUo3y-36">
          <mxGeometry x="0.2463" y="-2" relative="1" as="geometry">
            <mxPoint as="offset" />
          </mxGeometry>
        </mxCell>
        <mxCell id="H0bIkN5_pEuc1fQZUo3y-41" value="" style="endArrow=classic;html=1;rounded=0;dashed=1;exitX=-0.186;exitY=0.743;exitDx=0;exitDy=0;exitPerimeter=0;" edge="1" parent="1" source="3nuBFxr9cyL0pnOWT2aG-6" target="H0bIkN5_pEuc1fQZUo3y-43">
          <mxGeometry width="50" height="50" relative="1" as="geometry">
            <mxPoint x="400" y="330" as="sourcePoint" />
            <mxPoint x="240" y="310" as="targetPoint" />
            <Array as="points">
              <mxPoint x="190" y="338" />
            </Array>
          </mxGeometry>
        </mxCell>
        <mxCell id="H0bIkN5_pEuc1fQZUo3y-42" value="返回登录成功的信息" style="edgeLabel;html=1;align=center;verticalAlign=middle;resizable=0;points=[];" vertex="1" connectable="0" parent="H0bIkN5_pEuc1fQZUo3y-41">
          <mxGeometry x="0.1822" y="-1" relative="1" as="geometry">
            <mxPoint x="11" y="-15" as="offset" />
          </mxGeometry>
        </mxCell>
      </root>
    </mxGraphModel>
  </diagram>
</mxfile>
